<?xml version='1.0' encoding='UTF-8'?>
<svg width="14.8mm" height="14.8mm" version="1.1" viewBox="0 0 14.8 14.8" xmlns="http://www.w3.org/2000/svg"><path d="M1.6,1.6H2V2H1.6zM2,1.6H2.4V2H2zM2.4,1.6H2.8V2H2.4zM2.8,1.6H3.2V2H2.8zM3.2,1.6H3.6V2H3.2zM3.6,1.6H4V2H3.6zM4,1.6H4.4V2H4zM5.6,1.6H6V2H5.6zM6.4,1.6H6.8V2H6.4zM6.8,1.6H7.2V2H6.8zM8.4,1.6H8.8V2H8.4zM8.8,1.6H9.2V2H8.8zM10.4,1.6H10.8V2H10.4zM10.8,1.6H11.2V2H10.8zM11.2,1.6H11.6V2H11.2zM11.6,1.6H12V2H11.6zM12,1.6H12.4V2H12zM12.4,1.6H12.8V2H12.4zM12.8,1.6H13.2V2H12.8zM1.6,2H2V2.4H1.6zM4,2H4.4V2.4H4zM4.8,2H5.2V2.4H4.8zM5.2,2H5.6V2.4H5.2zM6.4,2H6.8V2.4H6.4zM7.2,2H7.6V2.4H7.2zM10.4,2H10.8V2.4H10.4zM12.8,2H13.2V2.4H12.8zM1.6,2.4H2V2.8H1.6zM2.4,2.4H2.8V2.8H2.4zM2.8,2.4H3.2V2.8H2.8zM3.2,2.4H3.6V2.8H3.2zM4,2.4H4.4V2.8H4zM4.8,2.4H5.2V2.8H4.8zM5.6,2.4H6V2.8H5.6zM6.4,2.4H6.8V2.8H6.4zM7.2,2.4H7.6V2.8H7.2zM7.6,2.4H8V2.8H7.6zM8,2.4H8.4V2.8H8zM9.2,2.4H9.6V2.8H9.2zM9.6,2.4H10V2.8H9.6zM10.4,2.4H10.8V2.8H10.4zM11.2,2.4H11.6V2.8H11.2zM11.6,2.4H12V2.8H11.6zM12,2.4H12.4V2.8H12zM12.8,2.4H13.2V2.8H12.8zM1.6,2.8H2V3.2H1.6zM2.4,2.8H2.8V3.2H2.4zM2.8,2.8H3.2V3.2H2.8zM3.2,2.8H3.6V3.2H3.2zM4,2.8H4.4V3.2H4zM4.8,2.8H5.2V3.2H4.8zM6.8,2.8H7.2V3.2H6.8zM7.6,2.8H8V3.2H7.6zM8,2.8H8.4V3.2H8zM8.4,2.8H8.8V3.2H8.4zM10.4,2.8H10.8V3.2H10.4zM11.2,2.8H11.6V3.2H11.2zM11.6,2.8H12V3.2H11.6zM12,2.8H12.4V3.2H12zM12.8,2.8H13.2V3.2H12.8zM1.6,3.2H2V3.6H1.6zM2.4,3.2H2.8V3.6H2.4zM2.8,3.2H3.2V3.6H2.8zM3.2,3.2H3.6V3.6H3.2zM4,3.2H4.4V3.6H4zM5.2,3.2H5.6V3.6H5.2zM7.2,3.2H7.6V3.6H7.2zM8,3.2H8.4V3.6H8zM9.2,3.2H9.6V3.6H9.2zM9.6,3.2H10V3.6H9.6zM10.4,3.2H10.8V3.6H10.4zM11.2,3.2H11.6V3.6H11.2zM11.6,3.2H12V3.6H11.6zM12,3.2H12.4V3.6H12zM12.8,3.2H13.2V3.6H12.8zM1.6,3.6H2V4H1.6zM4,3.6H4.4V4H4zM6.4,3.6H6.8V4H6.4zM8.4,3.6H8.8V4H8.4zM8.8,3.6H9.2V4H8.8zM10.4,3.6H10.8V4H10.4zM12.8,3.6H13.2V4H12.8zM1.6,4H2V4.4H1.6zM2,4H2.4V4.4H2zM2.4,4H2.8V4.4H2.4zM2.8,4H3.2V4.4H2.8zM3.2,4H3.6V4.4H3.2zM3.6,4H4V4.4H3.6zM4,4H4.4V4.4H4zM4.8,4H5.2V4.4H4.8zM5.6,4H6V4.4H5.6zM6.4,4H6.8V4.4H6.4zM7.2,4H7.6V4.4H7.2zM8,4H8.4V4.4H8zM8.8,4H9.2V4.4H8.8zM9.6,4H10V4.4H9.6zM10.4,4H10.8V4.4H10.4zM10.8,4H11.2V4.4H10.8zM11.2,4H11.6V4.4H11.2zM11.6,4H12V4.4H11.6zM12,4H12.4V4.4H12zM12.4,4H12.8V4.4H12.4zM12.8,4H13.2V4.4H12.8zM4.8,4.4H5.2V4.8H4.8zM6,4.4H6.4V4.8H6zM6.4,4.4H6.8V4.8H6.4zM8,4.4H8.4V4.8H8zM8.8,4.4H9.2V4.8H8.8zM9.2,4.4H9.6V4.8H9.2zM9.6,4.4H10V4.8H9.6zM1.6,4.8H2V5.2H1.6zM4,4.8H4.4V5.2H4zM4.8,4.8H5.2V5.2H4.8zM5.2,4.8H5.6V5.2H5.2zM5.6,4.8H6V5.2H5.6zM8.4,4.8H8.8V5.2H8.4zM9.2,4.8H9.6V5.2H9.2zM10,4.8H10.4V5.2H10zM10.4,4.8H10.8V5.2H10.4zM11.6,4.8H12V5.2H11.6zM12,4.8H12.4V5.2H12zM12.4,4.8H12.8V5.2H12.4zM1.6,5.2H2V5.6H1.6zM2,5.2H2.4V5.6H2zM2.4,5.2H2.8V5.6H2.4zM2.8,5.2H3.2V5.6H2.8zM3.2,5.2H3.6V5.6H3.2zM3.6,5.2H4V5.6H3.6zM4.4,5.2H4.8V5.6H4.4zM4.8,5.2H5.2V5.6H4.8zM5.2,5.2H5.6V5.6H5.2zM6,5.2H6.4V5.6H6zM6.4,5.2H6.8V5.6H6.4zM6.8,5.2H7.2V5.6H6.8zM7.2,5.2H7.6V5.6H7.2zM7.6,5.2H8V5.6H7.6zM8.8,5.2H9.2V5.6H8.8zM9.2,5.2H9.6V5.6H9.2zM9.6,5.2H10V5.6H9.6zM10.8,5.2H11.2V5.6H10.8zM11.2,5.2H11.6V5.6H11.2zM12,5.2H12.4V5.6H12zM12.4,5.2H12.8V5.6H12.4zM2.8,5.6H3.2V6H2.8zM4,5.6H4.4V6H4zM4.4,5.6H4.8V6H4.4zM4.8,5.6H5.2V6H4.8zM6,5.6H6.4V6H6zM6.8,5.6H7.2V6H6.8zM7.2,5.6H7.6V6H7.2zM7.6,5.6H8V6H7.6zM8,5.6H8.4V6H8zM8.4,5.6H8.8V6H8.4zM8.8,5.6H9.2V6H8.8zM9.6,5.6H10V6H9.6zM10.8,5.6H11.2V6H10.8zM11.2,5.6H11.6V6H11.2zM2,6H2.4V6.4H2zM2.4,6H2.8V6.4H2.4zM2.8,6H3.2V6.4H2.8zM3.2,6H3.6V6.4H3.2zM4.4,6H4.8V6.4H4.4zM6.4,6H6.8V6.4H6.4zM6.8,6H7.2V6.4H6.8zM7.6,6H8V6.4H7.6zM8,6H8.4V6.4H8zM9.6,6H10V6.4H9.6zM10,6H10.4V6.4H10zM10.8,6H11.2V6.4H10.8zM11.6,6H12V6.4H11.6zM1.6,6.4H2V6.8H1.6zM3.2,6.4H3.6V6.8H3.2zM4,6.4H4.4V6.8H4zM4.4,6.4H4.8V6.8H4.4zM5.2,6.4H5.6V6.8H5.2zM6,6.4H6.4V6.8H6zM6.8,6.4H7.2V6.8H6.8zM8,6.4H8.4V6.8H8zM9.2,6.4H9.6V6.8H9.2zM9.6,6.4H10V6.8H9.6zM10.4,6.4H10.8V6.8H10.4zM10.8,6.4H11.2V6.8H10.8zM12.8,6.4H13.2V6.8H12.8zM2.8,6.8H3.2V7.2H2.8zM3.6,6.8H4V7.2H3.6zM4.4,6.8H4.8V7.2H4.4zM5.2,6.8H5.6V7.2H5.2zM7.6,6.8H8V7.2H7.6zM8,6.8H8.4V7.2H8zM8.8,6.8H9.2V7.2H8.8zM9.2,6.8H9.6V7.2H9.2zM9.6,6.8H10V7.2H9.6zM10.4,6.8H10.8V7.2H10.4zM10.8,6.8H11.2V7.2H10.8zM11.2,6.8H11.6V7.2H11.2zM12.4,6.8H12.8V7.2H12.4zM12.8,6.8H13.2V7.2H12.8zM1.6,7.2H2V7.6H1.6zM3.2,7.2H3.6V7.6H3.2zM4,7.2H4.4V7.6H4zM4.8,7.2H5.2V7.6H4.8zM5.2,7.2H5.6V7.6H5.2zM5.6,7.2H6V7.6H5.6zM6,7.2H6.4V7.6H6zM7.6,7.2H8V7.6H7.6zM9.6,7.2H10V7.6H9.6zM10.4,7.2H10.8V7.6H10.4zM10.8,7.2H11.2V7.6H10.8zM11.2,7.2H11.6V7.6H11.2zM11.6,7.2H12V7.6H11.6zM12,7.2H12.4V7.6H12zM2,7.6H2.4V8H2zM3.2,7.6H3.6V8H3.2zM3.6,7.6H4V8H3.6zM4.4,7.6H4.8V8H4.4zM5.2,7.6H5.6V8H5.2zM5.6,7.6H6V8H5.6zM6,7.6H6.4V8H6zM6.4,7.6H6.8V8H6.4zM7.6,7.6H8V8H7.6zM8,7.6H8.4V8H8zM9.2,7.6H9.6V8H9.2zM9.6,7.6H10V8H9.6zM10.8,7.6H11.2V8H10.8zM12,7.6H12.4V8H12zM12.8,7.6H13.2V8H12.8zM1.6,8H2V8.4H1.6zM2,8H2.4V8.4H2zM2.4,8H2.8V8.4H2.4zM3.2,8H3.6V8.4H3.2zM4,8H4.4V8.4H4zM4.4,8H4.8V8.4H4.4zM5.2,8H5.6V8.4H5.2zM5.6,8H6V8.4H5.6zM7.6,8H8V8.4H7.6zM8,8H8.4V8.4H8zM8.4,8H8.8V8.4H8.4zM9.2,8H9.6V8.4H9.2zM11.6,8H12V8.4H11.6zM12,8H12.4V8.4H12zM1.6,8.4H2V8.8H1.6zM2.4,8.4H2.8V8.8H2.4zM2.8,8.4H3.2V8.8H2.8zM3.2,8.4H3.6V8.8H3.2zM4.8,8.4H5.2V8.8H4.8zM5.6,8.4H6V8.8H5.6zM6,8.4H6.4V8.8H6zM6.8,8.4H7.2V8.8H6.8zM7.2,8.4H7.6V8.8H7.2zM7.6,8.4H8V8.8H7.6zM8,8.4H8.4V8.8H8zM8.4,8.4H8.8V8.8H8.4zM8.8,8.4H9.2V8.8H8.8zM9.2,8.4H9.6V8.8H9.2zM9.6,8.4H10V8.8H9.6zM10,8.4H10.4V8.8H10zM10.4,8.4H10.8V8.8H10.4zM11.2,8.4H11.6V8.8H11.2zM12,8.4H12.4V8.8H12zM12.4,8.4H12.8V8.8H12.4zM12.8,8.4H13.2V8.8H12.8zM1.6,8.8H2V9.2H1.6zM2,8.8H2.4V9.2H2zM2.4,8.8H2.8V9.2H2.4zM2.8,8.8H3.2V9.2H2.8zM3.6,8.8H4V9.2H3.6zM4,8.8H4.4V9.2H4zM4.4,8.8H4.8V9.2H4.4zM4.8,8.8H5.2V9.2H4.8zM5.2,8.8H5.6V9.2H5.2zM5.6,8.8H6V9.2H5.6zM6.4,8.8H6.8V9.2H6.4zM7.6,8.8H8V9.2H7.6zM8.4,8.8H8.8V9.2H8.4zM9.2,8.8H9.6V9.2H9.2zM10.4,8.8H10.8V9.2H10.4zM10.8,8.8H11.2V9.2H10.8zM11.2,8.8H11.6V9.2H11.2zM11.6,8.8H12V9.2H11.6zM12.8,8.8H13.2V9.2H12.8zM1.6,9.2H2V9.6H1.6zM2.8,9.2H3.2V9.6H2.8zM3.2,9.2H3.6V9.6H3.2zM3.6,9.2H4V9.6H3.6zM4.4,9.2H4.8V9.6H4.4zM6.4,9.2H6.8V9.6H6.4zM6.8,9.2H7.2V9.6H6.8zM7.6,9.2H8V9.6H7.6zM8,9.2H8.4V9.6H8zM8.8,9.2H9.2V9.6H8.8zM10,9.2H10.4V9.6H10zM10.8,9.2H11.2V9.6H10.8zM1.6,9.6H2V10H1.6zM2.4,9.6H2.8V10H2.4zM2.8,9.6H3.2V10H2.8zM3.2,9.6H3.6V10H3.2zM4,9.6H4.4V10H4zM4.8,9.6H5.2V10H4.8zM5.6,9.6H6V10H5.6zM6,9.6H6.4V10H6zM7.2,9.6H7.6V10H7.2zM8.4,9.6H8.8V10H8.4zM8.8,9.6H9.2V10H8.8zM9.6,9.6H10V10H9.6zM10,9.6H10.4V10H10zM10.4,9.6H10.8V10H10.4zM10.8,9.6H11.2V10H10.8zM11.2,9.6H11.6V10H11.2zM12,9.6H12.4V10H12zM12.4,9.6H12.8V10H12.4zM12.8,9.6H13.2V10H12.8zM4.8,10H5.2V10.4H4.8zM7.2,10H7.6V10.4H7.2zM7.6,10H8V10.4H7.6zM8,10H8.4V10.4H8zM8.4,10H8.8V10.4H8.4zM8.8,10H9.2V10.4H8.8zM9.6,10H10V10.4H9.6zM11.2,10H11.6V10.4H11.2zM11.6,10H12V10.4H11.6zM1.6,10.4H2V10.8H1.6zM2,10.4H2.4V10.8H2zM2.4,10.4H2.8V10.8H2.4zM2.8,10.4H3.2V10.8H2.8zM3.2,10.4H3.6V10.8H3.2zM3.6,10.4H4V10.8H3.6zM4,10.4H4.4V10.8H4zM5.6,10.4H6V10.8H5.6zM6,10.4H6.4V10.8H6zM6.4,10.4H6.8V10.8H6.4zM7.6,10.4H8V10.8H7.6zM8.4,10.4H8.8V10.8H8.4zM9.2,10.4H9.6V10.8H9.2zM9.6,10.4H10V10.8H9.6zM10.4,10.4H10.8V10.8H10.4zM11.2,10.4H11.6V10.8H11.2zM11.6,10.4H12V10.8H11.6zM12,10.4H12.4V10.8H12zM1.6,10.8H2V11.2H1.6zM4,10.8H4.4V11.2H4zM5.2,10.8H5.6V11.2H5.2zM5.6,10.8H6V11.2H5.6zM6,10.8H6.4V11.2H6zM7.2,10.8H7.6V11.2H7.2zM8.8,10.8H9.2V11.2H8.8zM9.2,10.8H9.6V11.2H9.2zM9.6,10.8H10V11.2H9.6zM11.2,10.8H11.6V11.2H11.2zM12.8,10.8H13.2V11.2H12.8zM1.6,11.2H2V11.6H1.6zM2.4,11.2H2.8V11.6H2.4zM2.8,11.2H3.2V11.6H2.8zM3.2,11.2H3.6V11.6H3.2zM4,11.2H4.4V11.6H4zM5.2,11.2H5.6V11.6H5.2zM5.6,11.2H6V11.6H5.6zM6,11.2H6.4V11.6H6zM6.4,11.2H6.8V11.6H6.4zM6.8,11.2H7.2V11.6H6.8zM7.2,11.2H7.6V11.6H7.2zM7.6,11.2H8V11.6H7.6zM9.2,11.2H9.6V11.6H9.2zM9.6,11.2H10V11.6H9.6zM10,11.2H10.4V11.6H10zM10.4,11.2H10.8V11.6H10.4zM10.8,11.2H11.2V11.6H10.8zM11.2,11.2H11.6V11.6H11.2zM11.6,11.2H12V11.6H11.6zM12.8,11.2H13.2V11.6H12.8zM1.6,11.6H2V12H1.6zM2.4,11.6H2.8V12H2.4zM2.8,11.6H3.2V12H2.8zM3.2,11.6H3.6V12H3.2zM4,11.6H4.4V12H4zM5.2,11.6H5.6V12H5.2zM7.2,11.6H7.6V12H7.2zM7.6,11.6H8V12H7.6zM8,11.6H8.4V12H8zM8.8,11.6H9.2V12H8.8zM11.6,11.6H12V12H11.6zM12,11.6H12.4V12H12zM12.8,11.6H13.2V12H12.8zM1.6,12H2V12.4H1.6zM2.4,12H2.8V12.4H2.4zM2.8,12H3.2V12.4H2.8zM3.2,12H3.6V12.4H3.2zM4,12H4.4V12.4H4zM5.2,12H5.6V12.4H5.2zM5.6,12H6V12.4H5.6zM6.4,12H6.8V12.4H6.4zM7.2,12H7.6V12.4H7.2zM7.6,12H8V12.4H7.6zM8.8,12H9.2V12.4H8.8zM9.2,12H9.6V12.4H9.2zM9.6,12H10V12.4H9.6zM10,12H10.4V12.4H10zM10.4,12H10.8V12.4H10.4zM10.8,12H11.2V12.4H10.8zM11.2,12H11.6V12.4H11.2zM11.6,12H12V12.4H11.6zM12,12H12.4V12.4H12zM12.4,12H12.8V12.4H12.4zM1.6,12.4H2V12.8H1.6zM4,12.4H4.4V12.8H4zM5.2,12.4H5.6V12.8H5.2zM5.6,12.4H6V12.8H5.6zM6.4,12.4H6.8V12.8H6.4zM6.8,12.4H7.2V12.8H6.8zM8,12.4H8.4V12.8H8zM10,12.4H10.4V12.8H10zM11.6,12.4H12V12.8H11.6zM12,12.4H12.4V12.8H12zM12.8,12.4H13.2V12.8H12.8zM1.6,12.8H2V13.2H1.6zM2,12.8H2.4V13.2H2zM2.4,12.8H2.8V13.2H2.4zM2.8,12.8H3.2V13.2H2.8zM3.2,12.8H3.6V13.2H3.2zM3.6,12.8H4V13.2H3.6zM4,12.8H4.4V13.2H4zM4.8,12.8H5.2V13.2H4.8zM5.6,12.8H6V13.2H5.6zM6,12.8H6.4V13.2H6zM6.8,12.8H7.2V13.2H6.8zM7.6,12.8H8V13.2H7.6zM8,12.8H8.4V13.2H8zM8.4,12.8H8.8V13.2H8.4zM9.2,12.8H9.6V13.2H9.2zM11.2,12.8H11.6V13.2H11.2zM11.6,12.8H12V13.2H11.6zM12,12.8H12.4V13.2H12z" id="qr-path" fill="#000000" fill-opacity="1" fill-rule="nonzero" stroke="none" /></svg>